<svg width="744" height="809" viewBox="0 0 744 809" fill="none" xmlns="http://www.w3.org/2000/svg">
<g opacity="0.5" filter="url(#filter0_f_439_156)">
<path d="M188.248 616.025C200.315 624.749 214.323 628.96 228.23 628.96C249.158 628.96 269.812 619.421 283.105 601.495C283.143 601.457 283.179 601.417 283.213 601.375C283.245 601.333 283.277 601.291 283.307 601.25L283.353 601.184C283.385 601.14 283.415 601.096 283.445 601.054L330.482 536.655L377.519 601.054C377.565 601.124 377.613 601.178 377.659 601.238C377.681 601.266 377.702 601.293 377.724 601.325C399.879 631.37 442.45 637.99 472.751 616.059C503.086 594.129 509.869 551.728 487.986 521.447L487.938 521.371C487.898 521.308 487.866 521.26 487.815 521.21L440.881 456.775L516.924 432.13C552.644 420.554 572.276 382.16 560.654 346.581C549.033 311.004 510.516 291.45 474.762 302.993L398.721 327.537L398.686 247.862C398.65 210.451 368.077 180 330.516 180C292.956 180 262.382 210.451 262.348 247.896L262.28 327.503L186.238 302.959C186.208 302.959 186.171 302.952 186.134 302.942C186.086 302.929 186.037 302.91 185.999 302.891C150.313 291.484 111.934 311.038 100.345 346.549C88.7561 382.058 108.253 420.317 143.802 431.995C143.835 432.005 143.865 432.017 143.893 432.029L144.018 432.076L144.075 432.096L220.083 456.741L173.149 521.176C173.132 521.21 173.107 521.244 173.081 521.278C173.055 521.312 173.03 521.346 173.013 521.38C151.096 551.66 157.913 594.095 188.248 616.025Z" fill="#AF52DE"/>
</g>
<defs>
<filter id="filter0_f_439_156" x="-83" y="0" width="827" height="809" filterUnits="userSpaceOnUse" color-interpolation-filters="sRGB">
<feFlood flood-opacity="0" result="BackgroundImageFix"/>
<feBlend mode="normal" in="SourceGraphic" in2="BackgroundImageFix" result="shape"/>
<feGaussianBlur stdDeviation="90" result="effect1_foregroundBlur_439_156"/>
</filter>
</defs>
</svg>
