<svg width="621" height="697" viewBox="0 0 621 697" fill="none" xmlns="http://www.w3.org/2000/svg">
<path d="M145.916 696.637L129.2 692.101L141.486 679.892L145.916 696.637ZM618.698 71.4539C616.593 70.3067 614.49 69.1753 612.39 68.0594L613.797 65.41C615.907 66.5309 618.019 67.6674 620.134 68.8196L618.698 71.4539ZM599.816 61.5501C595.635 59.4422 591.464 57.396 587.304 55.4106L588.596 52.7031C592.776 54.6979 596.966 56.7537 601.167 58.8713L599.816 61.5501ZM574.855 49.6366C570.491 47.6707 566.138 45.7718 561.799 43.939L562.966 41.1754C567.327 43.0174 571.701 44.9258 576.087 46.9013L574.855 49.6366ZM548.815 38.6368C544.5 36.935 540.198 35.2987 535.91 33.7269L536.942 30.9102C541.253 32.4904 545.578 34.1354 549.915 35.846L548.815 38.6368ZM522.644 29.0546C518.164 27.5411 513.7 26.0981 509.252 24.7247L510.137 21.8582C514.61 23.2394 519.099 24.6905 523.604 26.2124L522.644 29.0546ZM495.958 20.8122C491.435 19.5466 486.929 18.3532 482.442 17.2307L483.17 14.3204C487.684 15.4496 492.217 16.6502 496.766 17.9231L495.958 20.8122ZM468.729 14.0076C464.177 13.0069 459.646 12.0794 455.134 11.224L455.693 8.27655C460.233 9.13732 464.793 10.0707 469.373 11.0776L468.729 14.0076ZM441.37 8.82704C436.705 8.08682 432.062 7.42405 427.443 6.83751L427.821 3.86141C432.471 4.45188 437.144 5.11904 441.841 5.8641L441.37 8.82704ZM413.658 5.3053C408.978 4.85951 404.323 4.49236 399.695 4.2025L399.883 1.20837C404.543 1.50026 409.23 1.86997 413.943 2.31882L413.658 5.3053ZM385.683 3.55735C381.039 3.42104 376.424 3.36302 371.838 3.3819L371.826 0.381924C376.446 0.362912 381.094 0.421349 385.771 0.55864L385.683 3.55735ZM357.776 3.68286C353.093 3.86463 348.442 4.12721 343.824 4.46909L343.602 1.47727C348.256 1.1328 352.942 0.868235 357.66 0.685108L357.776 3.68286ZM330.009 5.73753C325.321 6.25208 320.669 6.84911 316.054 7.52696L315.618 4.55881C320.269 3.87565 324.958 3.27397 329.682 2.75544L330.009 5.73753ZM302.32 9.80126C297.717 10.6504 293.154 11.5808 288.631 12.5908L287.977 9.66287C292.537 8.64477 297.137 7.70693 301.775 6.85106L302.32 9.80126ZM275.029 15.8978C270.536 17.0803 266.086 18.3425 261.678 19.6824L260.805 16.8121C265.249 15.4612 269.736 14.1888 274.265 12.9966L275.029 15.8978ZM248.32 24.0254C243.912 25.553 239.55 27.1597 235.236 28.8436L234.145 26.0489C238.496 24.351 242.893 22.731 247.337 21.1908L248.32 24.0254ZM222.33 34.1701C218.043 36.0375 213.806 37.9827 209.619 40.0037L208.315 37.3021C212.536 35.2642 216.809 33.3027 221.132 31.4197L222.33 34.1701ZM197.206 46.2962C193.073 48.4935 188.993 50.7663 184.967 53.1128L183.456 50.521C187.516 48.1549 191.63 45.8629 195.798 43.6472L197.206 46.2962ZM173.057 60.3706C169.12 62.8758 165.241 65.4533 161.419 68.1009L159.71 65.6349C163.564 62.965 167.477 60.3659 171.446 57.8397L173.057 60.3706ZM150.092 76.2793C146.37 79.0783 142.709 81.9459 139.108 84.8801L137.213 82.5545C140.844 79.5958 144.536 76.7041 148.288 73.8817L150.092 76.2793ZM128.444 93.9209C124.951 97.0002 121.522 100.144 118.156 103.352L116.087 101.18C119.48 97.946 122.938 94.7756 126.46 91.6707L128.444 93.9209ZM108.229 113.185C104.984 116.526 101.804 119.928 98.6919 123.389L96.4611 121.383C99.5991 117.894 102.805 114.463 106.077 111.095L108.229 113.185ZM89.5549 133.951C86.5762 137.53 83.6661 141.166 80.826 144.857L78.4485 143.027C81.3119 139.306 84.2458 135.64 87.249 132.031L89.5549 133.951ZM72.5181 156.089C69.8228 159.881 67.1987 163.726 64.647 167.621L62.1376 165.977C64.7099 162.051 67.3554 158.174 70.0727 154.351L72.5181 156.089ZM57.2109 179.454C54.8109 183.438 52.4845 187.47 50.2328 191.547L47.6067 190.097C49.8765 185.987 52.2218 181.923 54.6411 177.906L57.2109 179.454ZM43.7096 203.901C41.6141 208.057 39.5943 212.255 37.6516 216.495L34.9243 215.245C36.8826 210.972 38.9186 206.739 41.0309 202.55L43.7096 203.901ZM32.0744 229.29C30.2927 233.594 28.5889 237.937 26.9642 242.316L24.1515 241.273C25.7891 236.859 27.5065 232.481 29.3024 228.143L32.0744 229.29ZM22.3564 255.478C20.9004 259.897 19.5236 264.35 18.2275 268.835L15.3455 268.002C16.6519 263.482 18.0395 258.993 19.5071 254.539L22.3564 255.478ZM14.5972 282.323C13.4729 286.829 12.429 291.364 11.4668 295.926L8.5314 295.307C9.50116 290.709 10.5533 286.138 11.6865 281.596L14.5972 282.323ZM8.82797 309.684C8.039 314.248 7.33121 318.836 6.70567 323.447L3.73289 323.044C4.36331 318.397 5.07667 313.772 5.87182 309.173L8.82797 309.684ZM5.07723 337.347C4.62116 341.964 4.24726 346.602 3.95679 351.259L0.962619 351.072C1.25535 346.38 1.63214 341.705 2.09174 337.052L5.07723 337.347ZM3.3386 365.204C3.21599 369.863 3.1767 374.538 3.22196 379.227L0.222096 379.256C0.176521 374.531 0.216062 369.82 0.33966 365.126L3.3386 365.204ZM3.60304 393.131C3.81284 397.778 4.10586 402.437 4.48311 407.107L1.49284 407.349C1.11274 402.644 0.817502 397.949 0.606061 393.266L3.60304 393.131ZM5.85171 420.999C6.3865 425.599 7.00347 430.208 7.70363 434.822L4.73757 435.272C4.03219 430.623 3.41061 425.98 2.87179 421.346L5.85171 420.999ZM10.0547 448.685C10.9038 453.213 11.8335 457.746 12.845 462.281L9.91689 462.934C8.89807 458.365 7.96147 453.799 7.10613 449.238L10.0547 448.685ZM16.1221 475.885C17.2872 480.385 18.5335 484.886 19.8619 489.388L16.9846 490.237C15.6467 485.703 14.3914 481.169 13.2179 476.636L16.1221 475.885ZM24.0152 502.652C25.4795 507.072 27.0239 511.491 28.6494 515.908L25.834 516.944C24.1972 512.497 22.642 508.047 21.1674 503.595L24.0152 502.652ZM33.6764 528.915C35.4099 533.196 37.2206 537.472 39.1093 541.742L36.3657 542.956C34.4642 538.656 32.6411 534.351 30.8958 530.041L33.6764 528.915ZM45.0107 554.537C47.0029 558.684 49.0699 562.825 51.2124 566.958L48.549 568.339C46.3925 564.179 44.3119 560.011 42.3065 555.836L45.0107 554.537ZM57.8205 579.249C60.0983 583.337 62.4513 587.417 64.8805 591.487L62.3045 593.024C59.8601 588.929 57.4921 584.823 55.1998 580.709L57.8205 579.249ZM72.1422 603.266C74.6252 607.167 77.1795 611.059 79.8058 614.939L77.3214 616.621C74.6793 612.717 72.1095 608.802 69.6112 604.876L72.1422 603.266ZM87.9013 626.544C90.5728 630.262 93.3119 633.968 96.1191 637.662L93.7306 639.477C90.9073 635.763 88.1523 632.035 85.465 628.295L87.9013 626.544ZM104.709 648.659C107.64 652.311 110.639 655.95 113.707 659.574L111.417 661.512C108.333 657.868 105.317 654.209 102.369 650.536L104.709 648.659ZM122.799 670.045C125.863 673.486 128.99 676.912 132.181 680.324L129.99 682.373C126.782 678.944 123.639 675.499 120.559 672.04L122.799 670.045Z" fill="#034D82" fill-opacity="0.19"/>
</svg>
