<svg width="40" height="42" viewBox="0 0 40 42" fill="none" xmlns="http://www.w3.org/2000/svg">
<path d="M17.8965 1.98559L5.60481 7.45813C2.06315 9.02469 2.06315 11.6147 5.60481 13.1813L17.8965 18.6538C19.2923 19.2805 21.584 19.2805 22.9798 18.6538L35.2715 13.1813C38.8132 11.6147 38.8132 9.02469 35.2715 7.45813L22.9798 1.98559C21.584 1.35897 19.2923 1.35897 17.8965 1.98559Z" stroke="white" stroke-width="2" stroke-linecap="round" stroke-linejoin="round"/>
<path d="M38.75 18.8613C38.75 20.6159 37.4375 22.642 35.8333 23.3521L21.6875 29.6602C20.6042 30.1406 19.375 30.1406 18.3125 29.6602L4.16667 23.3521C2.5625 22.642 1.25 20.6159 1.25 18.8613" stroke="white" stroke-width="2" stroke-linecap="round" stroke-linejoin="round"/>
<path d="M38.75 29.3066C38.75 31.2492 37.6042 33.0037 35.8333 33.7975L21.6875 40.1055C20.6042 40.5859 19.375 40.5859 18.3125 40.1055L4.16667 33.7975C2.39583 33.0037 1.25 31.2492 1.25 29.3066" stroke="white" stroke-width="2" stroke-linecap="round" stroke-linejoin="round"/>
</svg>
