<svg width="16" height="16" viewBox="0 0 16 16" fill="none" xmlns="http://www.w3.org/2000/svg">
<mask id="path-1-inside-1_287_209" fill="white">
<path d="M0 8C0 3.59375 3.5625 0 8 0C12.4062 0 16 3.59375 16 8C16 12.4375 12.4062 16 8 16C3.5625 16 0 12.4375 0 8ZM11.5938 6.625C11.9375 6.28125 11.9375 5.75 11.5938 5.40625C11.25 5.0625 10.7188 5.0625 10.375 5.40625L7 8.78125L5.59375 7.40625C5.25 7.0625 4.71875 7.0625 4.375 7.40625C4.03125 7.75 4.03125 8.28125 4.375 8.625L6.375 10.625C6.71875 10.9688 7.25 10.9688 7.59375 10.625L11.5938 6.625Z"/>
</mask>
<path d="M7 8.78125L6.30088 9.49626L7.0079 10.1876L7.70711 9.48836L7 8.78125ZM5.59375 7.40625L4.8866 8.1134L4.89463 8.12126L5.59375 7.40625ZM1 8C1 4.14349 4.11733 1 8 1V-1C3.00767 -1 -1 3.04401 -1 8H1ZM8 1C11.854 1 15 4.14603 15 8H17C17 3.04147 12.9585 -1 8 -1V1ZM15 8C15 11.8827 11.8565 15 8 15V17C12.956 17 17 12.9923 17 8H15ZM8 15C4.11478 15 1 11.8852 1 8H-1C-1 12.9898 3.01022 17 8 17V15ZM12.3009 7.33211C13.0351 6.59783 13.0351 5.43342 12.3009 4.69914L10.8866 6.11336C10.8717 6.09846 10.8516 6.06318 10.8516 6.01562C10.8516 5.96807 10.8717 5.93279 10.8866 5.91789L12.3009 7.33211ZM12.3009 4.69914C11.5666 3.96487 10.4022 3.96487 9.66789 4.69914L11.0821 6.11336C11.0672 6.12825 11.0319 6.14844 10.9844 6.14844C10.9368 6.14844 10.9015 6.12825 10.8866 6.11336L12.3009 4.69914ZM9.66789 4.69914L6.29289 8.07414L7.70711 9.48836L11.0821 6.11336L9.66789 4.69914ZM7.69912 8.06624L6.29287 6.69124L4.89463 8.12126L6.30088 9.49626L7.69912 8.06624ZM6.30086 6.69914C5.56658 5.96487 4.40217 5.96487 3.66789 6.69914L5.08211 8.11336C5.06721 8.12825 5.03193 8.14844 4.98438 8.14844C4.93682 8.14844 4.90154 8.12825 4.88664 8.11336L6.30086 6.69914ZM3.66789 6.69914C2.93362 7.43342 2.93362 8.59783 3.66789 9.33211L5.08211 7.91789C5.097 7.93279 5.11719 7.96807 5.11719 8.01562C5.11719 8.06318 5.097 8.09846 5.08211 8.11336L3.66789 6.69914ZM3.66789 9.33211L5.66789 11.3321L7.08211 9.91789L5.08211 7.91789L3.66789 9.33211ZM5.66789 11.3321C6.40217 12.0664 7.56658 12.0664 8.30086 11.3321L6.88664 9.91789C6.90154 9.903 6.93682 9.88281 6.98438 9.88281C7.03193 9.88281 7.06721 9.903 7.08211 9.91789L5.66789 11.3321ZM8.30086 11.3321L12.3009 7.33211L10.8866 5.91789L6.88664 9.91789L8.30086 11.3321Z" fill="#6A47ED" mask="url(#path-1-inside-1_287_209)"/>
</svg>
