<svg xmlns="http://www.w3.org/2000/svg" xmlns:xlink="http://www.w3.org/1999/xlink" width="167" zoomAndPan="magnify" viewBox="0 0 125.25 30.000001" height="40" preserveAspectRatio="xMidYMid meet" version="1.0"><defs><g/><clipPath id="c9c4b29792"><path d="M 5 0 L 32.722656 0 L 32.722656 28.304688 L 5 28.304688 Z M 5 0 " clip-rule="nonzero"/></clipPath></defs><g clip-path="url(#c9c4b29792)"><path fill="#2b4dff" d="M 25.828125 28.304688 C 22.019531 28.304688 18.929688 25.21875 18.929688 21.410156 L 18.929688 28.304688 L 12.035156 28.304688 C 8.226562 28.304688 5.140625 25.21875 5.140625 21.410156 C 5.140625 17.601562 8.226562 14.515625 12.035156 14.515625 C 8.226562 14.515625 5.140625 11.429688 5.140625 7.621094 C 5.140625 5.730469 5.902344 4.015625 7.136719 2.769531 L 7.183594 2.722656 C 8.429688 1.488281 10.144531 0.726562 12.035156 0.726562 C 13.914062 0.726562 15.621094 1.476562 16.863281 2.699219 C 16.878906 2.714844 16.894531 2.730469 16.910156 2.746094 C 16.925781 2.761719 16.941406 2.777344 16.957031 2.789062 C 18.179688 4.035156 18.929688 5.738281 18.929688 7.621094 C 18.929688 3.8125 22.019531 0.726562 25.828125 0.726562 C 29.632812 0.726562 32.722656 3.8125 32.722656 7.621094 L 32.722656 14.515625 L 25.828125 14.515625 C 29.632812 14.515625 32.722656 17.601562 32.722656 21.410156 C 32.722656 25.21875 29.632812 28.304688 25.828125 28.304688 Z M 20.308594 21.410156 C 20.308594 18.363281 22.78125 15.894531 25.828125 15.894531 L 25.828125 26.925781 C 22.78125 26.925781 20.308594 24.457031 20.308594 21.410156 Z M 6.519531 7.621094 C 6.519531 10.667969 8.988281 13.136719 12.035156 13.136719 C 15.082031 13.136719 17.550781 10.667969 17.550781 7.621094 Z M 31.34375 13.136719 L 31.34375 7.621094 C 31.34375 4.574219 28.875 2.105469 25.828125 2.105469 C 22.78125 2.105469 20.308594 4.574219 20.308594 7.621094 L 20.308594 13.136719 Z M 17.550781 15.894531 L 17.550781 26.925781 L 12.035156 26.925781 C 8.988281 26.925781 6.519531 24.457031 6.519531 21.410156 C 6.519531 18.363281 8.988281 15.894531 12.035156 15.894531 Z M 17.550781 15.894531 " fill-opacity="1" fill-rule="evenodd"/></g><g fill="#ffffff" fill-opacity="1"><g transform="translate(36.344283, 18.078815)"><g><path d="M 18.3125 -11.359375 C 18.550781 -11.359375 18.734375 -11.316406 18.859375 -11.234375 C 18.992188 -11.160156 19.0625 -11.054688 19.0625 -10.921875 C 19.0625 -10.867188 19.039062 -10.796875 19 -10.703125 C 18.96875 -10.597656 18.921875 -10.519531 18.859375 -10.46875 C 18.796875 -10.425781 18.703125 -10.363281 18.578125 -10.28125 C 18.398438 -10.175781 18.253906 -10.0625 18.140625 -9.9375 C 18.035156 -9.8125 17.941406 -9.617188 17.859375 -9.359375 L 15.78125 -2.03125 C 15.738281 -1.882812 15.71875 -1.742188 15.71875 -1.609375 C 15.71875 -1.484375 15.738281 -1.375 15.78125 -1.28125 C 15.820312 -1.195312 15.875 -1.097656 15.9375 -0.984375 C 15.976562 -0.929688 16.015625 -0.875 16.046875 -0.8125 C 16.085938 -0.75 16.109375 -0.679688 16.109375 -0.609375 C 16.109375 -0.585938 16.097656 -0.53125 16.078125 -0.4375 C 16.023438 -0.289062 15.914062 -0.179688 15.75 -0.109375 C 15.59375 -0.046875 15.359375 -0.015625 15.046875 -0.015625 L 11.046875 -0.015625 C 10.804688 -0.015625 10.617188 -0.0507812 10.484375 -0.125 C 10.359375 -0.207031 10.296875 -0.316406 10.296875 -0.453125 C 10.296875 -0.523438 10.3125 -0.601562 10.34375 -0.6875 C 10.382812 -0.757812 10.4375 -0.828125 10.5 -0.890625 C 10.5625 -0.953125 10.613281 -1 10.65625 -1.03125 C 10.707031 -1.0625 10.75 -1.085938 10.78125 -1.109375 C 10.957031 -1.210938 11.101562 -1.328125 11.21875 -1.453125 C 11.332031 -1.578125 11.425781 -1.769531 11.5 -2.03125 L 12.796875 -6.625 L 8.390625 -1.15625 C 8.023438 -0.71875 7.726562 -0.414062 7.5 -0.25 C 7.28125 -0.0820312 7.03125 0 6.75 0 C 6.476562 0 6.265625 -0.0859375 6.109375 -0.265625 C 5.953125 -0.441406 5.8125 -0.738281 5.6875 -1.15625 L 4.09375 -6.421875 L 2.828125 -2.015625 C 2.785156 -1.867188 2.765625 -1.722656 2.765625 -1.578125 C 2.765625 -1.441406 2.78125 -1.328125 2.8125 -1.234375 C 2.851562 -1.148438 2.914062 -1.054688 3 -0.953125 C 3.101562 -0.804688 3.15625 -0.6875 3.15625 -0.59375 C 3.15625 -0.570312 3.144531 -0.515625 3.125 -0.421875 C 3.070312 -0.265625 2.96875 -0.15625 2.8125 -0.09375 C 2.65625 -0.03125 2.414062 0 2.09375 0 L 0.6875 0 C 0.445312 0 0.257812 -0.0351562 0.125 -0.109375 C 0 -0.191406 -0.0625 -0.300781 -0.0625 -0.4375 C -0.0625 -0.507812 -0.046875 -0.585938 -0.015625 -0.671875 C 0.0234375 -0.796875 0.0976562 -0.890625 0.203125 -0.953125 C 0.304688 -1.023438 0.367188 -1.066406 0.390625 -1.078125 C 0.578125 -1.191406 0.722656 -1.304688 0.828125 -1.421875 C 0.941406 -1.546875 1.039062 -1.742188 1.125 -2.015625 L 3.203125 -9.375 L 2.9375 -10.28125 C 2.875 -10.445312 2.84375 -10.613281 2.84375 -10.78125 C 2.84375 -10.976562 2.90625 -11.125 3.03125 -11.21875 C 3.164062 -11.3125 3.367188 -11.359375 3.640625 -11.359375 L 6.296875 -11.359375 C 6.628906 -11.359375 6.878906 -11.28125 7.046875 -11.125 C 7.210938 -10.976562 7.347656 -10.722656 7.453125 -10.359375 L 9.15625 -4.703125 L 13.78125 -10.453125 C 14.070312 -10.816406 14.359375 -11.054688 14.640625 -11.171875 C 14.921875 -11.296875 15.296875 -11.359375 15.765625 -11.359375 Z M 18.3125 -11.359375 "/></g></g></g><g fill="#ffffff" fill-opacity="1"><g transform="translate(53.974228, 18.078815)"><g><path d="M 5.78125 -9.109375 C 7.21875 -9.109375 8.257812 -8.875 8.90625 -8.40625 C 9.5625 -7.945312 9.890625 -7.359375 9.890625 -6.640625 C 9.890625 -6.429688 9.863281 -6.234375 9.8125 -6.046875 C 9.644531 -5.296875 9.171875 -4.757812 8.390625 -4.4375 C 7.617188 -4.113281 6.703125 -3.953125 5.640625 -3.953125 C 5.109375 -3.953125 4.609375 -3.988281 4.140625 -4.0625 C 4.128906 -3.46875 4.285156 -3.050781 4.609375 -2.8125 C 4.941406 -2.570312 5.40625 -2.453125 6 -2.453125 C 6.269531 -2.453125 6.53125 -2.484375 6.78125 -2.546875 C 7.03125 -2.609375 7.347656 -2.703125 7.734375 -2.828125 C 8.054688 -2.941406 8.273438 -3 8.390625 -3 C 8.515625 -3 8.578125 -2.925781 8.578125 -2.78125 C 8.585938 -2.382812 8.4375 -1.96875 8.125 -1.53125 C 7.820312 -1.09375 7.367188 -0.71875 6.765625 -0.40625 C 6.160156 -0.101562 5.429688 0.046875 4.578125 0.046875 C 3.316406 0.046875 2.28125 -0.269531 1.46875 -0.90625 C 0.664062 -1.539062 0.265625 -2.46875 0.265625 -3.6875 C 0.265625 -4.019531 0.3125 -4.414062 0.40625 -4.875 C 0.6875 -6.269531 1.304688 -7.320312 2.265625 -8.03125 C 3.234375 -8.75 4.40625 -9.109375 5.78125 -9.109375 Z M 4.265625 -5.078125 C 4.304688 -5.066406 4.367188 -5.0625 4.453125 -5.0625 C 4.929688 -5.0625 5.296875 -5.28125 5.546875 -5.71875 C 5.796875 -6.164062 5.910156 -6.660156 5.890625 -7.203125 C 5.878906 -7.523438 5.789062 -7.6875 5.625 -7.6875 C 5.5 -7.6875 5.347656 -7.585938 5.171875 -7.390625 C 5.003906 -7.191406 4.835938 -6.890625 4.671875 -6.484375 C 4.515625 -6.085938 4.378906 -5.617188 4.265625 -5.078125 Z M 4.265625 -5.078125 "/></g></g></g><g fill="#ffffff" fill-opacity="1"><g transform="translate(63.513129, 18.078815)"><g><path d="M 5.4375 -12.59375 C 6.09375 -12.59375 6.578125 -12.46875 6.890625 -12.21875 C 7.203125 -11.96875 7.359375 -11.628906 7.359375 -11.203125 C 7.359375 -10.953125 7.320312 -10.707031 7.25 -10.46875 L 4.5625 -1.765625 C 4.53125 -1.628906 4.515625 -1.515625 4.515625 -1.421875 C 4.515625 -1.265625 4.539062 -1.144531 4.59375 -1.0625 C 4.65625 -0.976562 4.738281 -0.894531 4.84375 -0.8125 C 4.914062 -0.738281 4.96875 -0.675781 5 -0.625 C 5.039062 -0.570312 5.050781 -0.503906 5.03125 -0.421875 C 4.96875 -0.273438 4.851562 -0.164062 4.6875 -0.09375 C 4.519531 -0.03125 4.257812 0 3.90625 0 L 0.015625 0 C -0.273438 0 -0.488281 -0.046875 -0.625 -0.140625 C -0.757812 -0.242188 -0.804688 -0.375 -0.765625 -0.53125 C -0.722656 -0.664062 -0.601562 -0.785156 -0.40625 -0.890625 C -0.238281 -0.972656 -0.0976562 -1.078125 0.015625 -1.203125 C 0.128906 -1.328125 0.226562 -1.53125 0.3125 -1.8125 L 2.890625 -10.3125 C 2.929688 -10.414062 2.953125 -10.5 2.953125 -10.5625 C 2.953125 -10.6875 2.921875 -10.789062 2.859375 -10.875 C 2.796875 -10.957031 2.710938 -11.035156 2.609375 -11.109375 C 2.492188 -11.203125 2.410156 -11.28125 2.359375 -11.34375 C 2.304688 -11.414062 2.296875 -11.507812 2.328125 -11.625 C 2.398438 -11.882812 2.757812 -12.109375 3.40625 -12.296875 C 4.050781 -12.492188 4.726562 -12.59375 5.4375 -12.59375 Z M 5.4375 -12.59375 "/></g></g></g><g fill="#ffffff" fill-opacity="1"><g transform="translate(69.747483, 18.078815)"><g><path d="M 6.59375 -9.015625 C 8.144531 -9.015625 9.285156 -8.703125 10.015625 -8.078125 C 10.742188 -7.453125 11.109375 -6.632812 11.109375 -5.625 C 11.109375 -5.28125 11.066406 -4.898438 10.984375 -4.484375 C 10.765625 -3.546875 10.359375 -2.726562 9.765625 -2.03125 C 9.171875 -1.332031 8.445312 -0.789062 7.59375 -0.40625 C 6.738281 -0.03125 5.8125 0.15625 4.8125 0.15625 C 3.226562 0.15625 2.054688 -0.15625 1.296875 -0.78125 C 0.546875 -1.414062 0.171875 -2.257812 0.171875 -3.3125 C 0.171875 -3.65625 0.21875 -4.046875 0.3125 -4.484375 C 0.519531 -5.367188 0.925781 -6.15625 1.53125 -6.84375 C 2.144531 -7.53125 2.890625 -8.0625 3.765625 -8.4375 C 4.648438 -8.820312 5.59375 -9.015625 6.59375 -9.015625 Z M 6.546875 -7.5 C 6.304688 -7.5 6.050781 -7.285156 5.78125 -6.859375 C 5.519531 -6.429688 5.207031 -5.628906 4.84375 -4.453125 C 4.476562 -3.265625 4.296875 -2.429688 4.296875 -1.953125 C 4.296875 -1.703125 4.332031 -1.535156 4.40625 -1.453125 C 4.488281 -1.367188 4.597656 -1.328125 4.734375 -1.328125 C 4.972656 -1.304688 5.21875 -1.507812 5.46875 -1.9375 C 5.726562 -2.375 6.050781 -3.21875 6.4375 -4.46875 C 6.789062 -5.570312 6.96875 -6.375 6.96875 -6.875 C 6.96875 -7.113281 6.929688 -7.273438 6.859375 -7.359375 C 6.785156 -7.453125 6.679688 -7.5 6.546875 -7.5 Z M 6.546875 -7.5 "/></g></g></g><g fill="#ffffff" fill-opacity="1"><g transform="translate(80.921631, 18.078815)"><g><path d="M 7.625 -8.796875 C 7.832031 -8.796875 7.992188 -8.75 8.109375 -8.65625 C 8.234375 -8.570312 8.296875 -8.445312 8.296875 -8.28125 C 8.296875 -8.238281 8.285156 -8.160156 8.265625 -8.046875 C 8.117188 -7.546875 7.78125 -7.296875 7.25 -7.296875 L 6.25 -7.296875 L 4.984375 -3.078125 C 4.921875 -2.910156 4.890625 -2.738281 4.890625 -2.5625 C 4.890625 -2.351562 4.945312 -2.207031 5.0625 -2.125 C 5.175781 -2.050781 5.335938 -2.015625 5.546875 -2.015625 C 5.722656 -2.015625 5.945312 -2.035156 6.21875 -2.078125 C 6.351562 -2.109375 6.472656 -2.125 6.578125 -2.125 C 6.660156 -2.125 6.71875 -2.097656 6.75 -2.046875 C 6.789062 -2.003906 6.8125 -1.941406 6.8125 -1.859375 C 6.820312 -1.628906 6.65625 -1.351562 6.3125 -1.03125 C 5.96875 -0.707031 5.5 -0.425781 4.90625 -0.1875 C 4.3125 0.0390625 3.660156 0.15625 2.953125 0.15625 C 2.179688 0.15625 1.5625 -0.0195312 1.09375 -0.375 C 0.625 -0.726562 0.390625 -1.210938 0.390625 -1.828125 C 0.390625 -2.109375 0.4375 -2.378906 0.53125 -2.640625 L 1.625 -6.015625 C 1.675781 -6.210938 1.703125 -6.367188 1.703125 -6.484375 C 1.703125 -6.703125 1.644531 -6.890625 1.53125 -7.046875 C 1.425781 -7.210938 1.28125 -7.378906 1.09375 -7.546875 C 0.914062 -7.710938 0.789062 -7.847656 0.71875 -7.953125 C 0.65625 -8.054688 0.644531 -8.1875 0.6875 -8.34375 C 0.726562 -8.488281 0.820312 -8.597656 0.96875 -8.671875 C 1.113281 -8.753906 1.347656 -8.796875 1.671875 -8.796875 L 2.625 -8.796875 L 3.703125 -9.875 C 4.078125 -10.25 4.421875 -10.507812 4.734375 -10.65625 C 5.046875 -10.800781 5.453125 -10.875 5.953125 -10.875 C 6.660156 -10.875 7.015625 -10.601562 7.015625 -10.0625 C 7.015625 -9.882812 6.992188 -9.722656 6.953125 -9.578125 L 6.71875 -8.796875 Z M 7.625 -8.796875 "/></g></g></g><g fill="#ffffff" fill-opacity="1"><g transform="translate(88.246145, 18.078815)"><g><path d="M 8.375 -9.015625 C 9.007812 -9.015625 9.515625 -8.820312 9.890625 -8.4375 C 10.273438 -8.050781 10.46875 -7.570312 10.46875 -7 C 10.46875 -6.789062 10.445312 -6.59375 10.40625 -6.40625 C 10.289062 -5.9375 10.070312 -5.578125 9.75 -5.328125 C 9.4375 -5.078125 9.054688 -4.953125 8.609375 -4.953125 C 8.171875 -4.953125 7.84375 -5.054688 7.625 -5.265625 C 7.40625 -5.472656 7.210938 -5.742188 7.046875 -6.078125 C 6.953125 -6.273438 6.863281 -6.414062 6.78125 -6.5 C 6.707031 -6.59375 6.617188 -6.640625 6.515625 -6.640625 C 6.398438 -6.640625 6.296875 -6.59375 6.203125 -6.5 C 6.117188 -6.414062 6.046875 -6.257812 5.984375 -6.03125 L 4.671875 -1.765625 C 4.648438 -1.710938 4.640625 -1.628906 4.640625 -1.515625 C 4.640625 -1.367188 4.679688 -1.242188 4.765625 -1.140625 C 4.847656 -1.046875 4.960938 -0.957031 5.109375 -0.875 C 5.242188 -0.78125 5.332031 -0.703125 5.375 -0.640625 C 5.425781 -0.585938 5.445312 -0.515625 5.4375 -0.421875 C 5.414062 -0.273438 5.332031 -0.164062 5.1875 -0.09375 C 5.050781 -0.03125 4.8125 0 4.46875 0 L 0.109375 0 C -0.191406 0 -0.40625 -0.046875 -0.53125 -0.140625 C -0.664062 -0.242188 -0.71875 -0.375 -0.6875 -0.53125 C -0.632812 -0.664062 -0.515625 -0.785156 -0.328125 -0.890625 C -0.148438 -0.972656 -0.0078125 -1.078125 0.09375 -1.203125 C 0.207031 -1.328125 0.304688 -1.53125 0.390625 -1.8125 L 1.90625 -6.734375 C 1.925781 -6.785156 1.9375 -6.863281 1.9375 -6.96875 C 1.9375 -7.09375 1.910156 -7.1875 1.859375 -7.25 C 1.816406 -7.320312 1.738281 -7.410156 1.625 -7.515625 C 1.507812 -7.609375 1.425781 -7.6875 1.375 -7.75 C 1.332031 -7.820312 1.328125 -7.914062 1.359375 -8.03125 C 1.429688 -8.289062 1.789062 -8.519531 2.4375 -8.71875 C 3.082031 -8.914062 3.757812 -9.015625 4.46875 -9.015625 C 4.9375 -9.015625 5.320312 -8.910156 5.625 -8.703125 C 5.925781 -8.492188 6.125 -8.195312 6.21875 -7.8125 C 6.769531 -8.613281 7.488281 -9.015625 8.375 -9.015625 Z M 8.375 -9.015625 "/></g></g></g><g fill="#ffffff" fill-opacity="1"><g transform="translate(98.108689, 18.078815)"><g><path d="M 5.78125 -9.109375 C 7.21875 -9.109375 8.257812 -8.875 8.90625 -8.40625 C 9.5625 -7.945312 9.890625 -7.359375 9.890625 -6.640625 C 9.890625 -6.429688 9.863281 -6.234375 9.8125 -6.046875 C 9.644531 -5.296875 9.171875 -4.757812 8.390625 -4.4375 C 7.617188 -4.113281 6.703125 -3.953125 5.640625 -3.953125 C 5.109375 -3.953125 4.609375 -3.988281 4.140625 -4.0625 C 4.128906 -3.46875 4.285156 -3.050781 4.609375 -2.8125 C 4.941406 -2.570312 5.40625 -2.453125 6 -2.453125 C 6.269531 -2.453125 6.53125 -2.484375 6.78125 -2.546875 C 7.03125 -2.609375 7.347656 -2.703125 7.734375 -2.828125 C 8.054688 -2.941406 8.273438 -3 8.390625 -3 C 8.515625 -3 8.578125 -2.925781 8.578125 -2.78125 C 8.585938 -2.382812 8.4375 -1.96875 8.125 -1.53125 C 7.820312 -1.09375 7.367188 -0.71875 6.765625 -0.40625 C 6.160156 -0.101562 5.429688 0.046875 4.578125 0.046875 C 3.316406 0.046875 2.28125 -0.269531 1.46875 -0.90625 C 0.664062 -1.539062 0.265625 -2.46875 0.265625 -3.6875 C 0.265625 -4.019531 0.3125 -4.414062 0.40625 -4.875 C 0.6875 -6.269531 1.304688 -7.320312 2.265625 -8.03125 C 3.234375 -8.75 4.40625 -9.109375 5.78125 -9.109375 Z M 4.265625 -5.078125 C 4.304688 -5.066406 4.367188 -5.0625 4.453125 -5.0625 C 4.929688 -5.0625 5.296875 -5.28125 5.546875 -5.71875 C 5.796875 -6.164062 5.910156 -6.660156 5.890625 -7.203125 C 5.878906 -7.523438 5.789062 -7.6875 5.625 -7.6875 C 5.5 -7.6875 5.347656 -7.585938 5.171875 -7.390625 C 5.003906 -7.191406 4.835938 -6.890625 4.671875 -6.484375 C 4.515625 -6.085938 4.378906 -5.617188 4.265625 -5.078125 Z M 4.265625 -5.078125 "/></g></g></g><g fill="#ffffff" fill-opacity="1"><g transform="translate(107.64759, 18.078815)"><g><path d="M 8.984375 -9.015625 C 9.460938 -9.015625 9.851562 -8.851562 10.15625 -8.53125 C 10.46875 -8.207031 10.625 -7.804688 10.625 -7.328125 C 10.625 -7.109375 10.585938 -6.890625 10.515625 -6.671875 C 10.390625 -6.273438 10.203125 -5.976562 9.953125 -5.78125 C 9.710938 -5.59375 9.441406 -5.5 9.140625 -5.5 C 8.773438 -5.5 8.421875 -5.617188 8.078125 -5.859375 L 7.234375 -5.0625 C 7.515625 -4.289062 7.742188 -3.71875 7.921875 -3.34375 C 8.109375 -2.96875 8.257812 -2.722656 8.375 -2.609375 C 8.488281 -2.503906 8.617188 -2.453125 8.765625 -2.453125 C 8.835938 -2.453125 8.9375 -2.484375 9.0625 -2.546875 C 9.1875 -2.609375 9.285156 -2.640625 9.359375 -2.640625 C 9.429688 -2.640625 9.488281 -2.609375 9.53125 -2.546875 C 9.570312 -2.484375 9.59375 -2.398438 9.59375 -2.296875 C 9.59375 -2.242188 9.582031 -2.160156 9.5625 -2.046875 C 9.46875 -1.660156 9.273438 -1.304688 8.984375 -0.984375 C 8.691406 -0.671875 8.335938 -0.421875 7.921875 -0.234375 C 7.515625 -0.046875 7.101562 0.046875 6.6875 0.046875 C 6.257812 0.046875 5.890625 -0.00390625 5.578125 -0.109375 C 5.273438 -0.210938 4.960938 -0.453125 4.640625 -0.828125 C 4.328125 -1.203125 4.007812 -1.765625 3.6875 -2.515625 L 3.25 -1.5625 C 2.976562 -0.96875 2.703125 -0.546875 2.421875 -0.296875 C 2.148438 -0.0546875 1.828125 0.0625 1.453125 0.0625 C 0.953125 0.0625 0.539062 -0.09375 0.21875 -0.40625 C -0.09375 -0.726562 -0.25 -1.132812 -0.25 -1.625 C -0.25 -1.84375 -0.21875 -2.0625 -0.15625 -2.28125 C -0.03125 -2.664062 0.148438 -2.953125 0.390625 -3.140625 C 0.640625 -3.335938 0.921875 -3.4375 1.234375 -3.4375 C 1.585938 -3.4375 1.9375 -3.316406 2.28125 -3.078125 L 3.140625 -3.890625 C 2.867188 -4.660156 2.644531 -5.234375 2.46875 -5.609375 C 2.300781 -5.992188 2.15625 -6.238281 2.03125 -6.34375 C 1.914062 -6.457031 1.785156 -6.515625 1.640625 -6.515625 C 1.554688 -6.515625 1.453125 -6.484375 1.328125 -6.421875 C 1.210938 -6.359375 1.125 -6.328125 1.0625 -6.328125 C 0.882812 -6.328125 0.796875 -6.445312 0.796875 -6.6875 C 0.796875 -6.71875 0.804688 -6.789062 0.828125 -6.90625 C 0.984375 -7.5 1.34375 -8 1.90625 -8.40625 C 2.476562 -8.8125 3.085938 -9.015625 3.734375 -9.015625 C 4.140625 -9.015625 4.5 -8.953125 4.8125 -8.828125 C 5.125 -8.703125 5.4375 -8.453125 5.75 -8.078125 C 6.0625 -7.703125 6.378906 -7.15625 6.703125 -6.4375 L 7.171875 -7.515625 C 7.421875 -8.066406 7.679688 -8.453125 7.953125 -8.671875 C 8.234375 -8.898438 8.578125 -9.015625 8.984375 -9.015625 Z M 8.984375 -9.015625 "/></g></g></g></svg>