<svg width="167" height="39" viewBox="0 0 167 39" fill="none" xmlns="http://www.w3.org/2000/svg">
<path fill-rule="evenodd" clip-rule="evenodd" d="M9.5 0C14.7467 0 19 4.25329 19 9.5V0H28.5C33.7467 0 38 4.25329 38 9.5C38 14.7467 33.7467 19 28.5 19C33.7467 19 38 23.2533 38 28.5C38 31.1052 36.9513 33.4655 35.2531 35.1817L35.2175 35.2175L35.186 35.2489C33.4694 36.9496 31.1074 38 28.5 38C25.9104 38 23.5628 36.9638 21.8491 35.2835C21.8268 35.2616 21.8046 35.2396 21.7825 35.2175C21.7616 35.1967 21.7409 35.1758 21.7203 35.1548C20.0378 33.4409 19 31.0916 19 28.5C19 33.7467 14.7467 38 9.5 38C4.25329 38 0 33.7467 0 28.5V19H9.5C4.25329 19 0 14.7467 0 9.5C0 4.25329 4.25329 0 9.5 0ZM17.1 9.5C17.1 13.6974 13.6974 17.1 9.5 17.1V1.9C13.6974 1.9 17.1 5.30263 17.1 9.5ZM36.1 28.5C36.1 24.3026 32.6974 20.9 28.5 20.9C24.3026 20.9 20.9 24.3026 20.9 28.5H36.1ZM1.9 20.9V28.5C1.9 32.6974 5.30263 36.1 9.5 36.1C13.6974 36.1 17.1 32.6974 17.1 28.5V20.9H1.9ZM20.9 17.1V1.9H28.5C32.6974 1.9 36.1 5.30263 36.1 9.5C36.1 13.6974 32.6974 17.1 28.5 17.1H20.9Z" fill="#2B4DFF"/>
<path d="M55.3636 32H46.7614V8.72727H55.3523C57.7235 8.72727 59.7652 9.19318 61.4773 10.125C63.197 11.0492 64.5227 12.3826 65.4545 14.125C66.3864 15.8598 66.8523 17.9356 66.8523 20.3523C66.8523 22.7765 66.3864 24.8598 65.4545 26.6023C64.5303 28.3447 63.2083 29.6818 61.4886 30.6136C59.7689 31.5379 57.7273 32 55.3636 32ZM52.3864 27.2045H55.1477C56.4508 27.2045 57.553 26.9848 58.4545 26.5455C59.3636 26.0985 60.0492 25.375 60.5114 24.375C60.9811 23.3674 61.2159 22.0265 61.2159 20.3523C61.2159 18.678 60.9811 17.3447 60.5114 16.3523C60.0417 15.3523 59.3485 14.6326 58.4318 14.1932C57.5227 13.7462 56.4015 13.5227 55.0682 13.5227H52.3864V27.2045ZM70.1364 32V14.5455H75.6932V32H70.1364ZM72.9205 12.5114C72.1402 12.5114 71.4697 12.2538 70.9091 11.7386C70.3485 11.2159 70.0682 10.5871 70.0682 9.85227C70.0682 9.125 70.3485 8.50379 70.9091 7.98864C71.4697 7.46591 72.1402 7.20454 72.9205 7.20454C73.7083 7.20454 74.3788 7.46591 74.9318 7.98864C75.4924 8.50379 75.7727 9.125 75.7727 9.85227C75.7727 10.5871 75.4924 11.2159 74.9318 11.7386C74.3788 12.2538 73.7083 12.5114 72.9205 12.5114ZM87.3665 38.9091C85.7074 38.9091 84.2869 38.678 83.1051 38.2159C81.9233 37.7538 80.9953 37.1212 80.321 36.3182C79.6468 35.5152 79.2415 34.6061 79.1051 33.5909L84.3665 33.2955C84.465 33.6515 84.6468 33.9621 84.9119 34.2273C85.1847 34.4924 85.5369 34.697 85.9688 34.8409C86.4081 34.9848 86.9233 35.0568 87.5142 35.0568C88.446 35.0568 89.215 34.8295 89.821 34.375C90.4347 33.928 90.7415 33.1439 90.7415 32.0227V28.9545H90.5483C90.3286 29.4924 89.9953 29.9735 89.5483 30.3977C89.1013 30.822 88.5445 31.1553 87.8778 31.3977C87.2188 31.6402 86.4612 31.7614 85.6051 31.7614C84.3324 31.7614 83.1657 31.4659 82.1051 30.875C81.0521 30.2765 80.2074 29.3523 79.571 28.1023C78.9422 26.8447 78.6278 25.2273 78.6278 23.25C78.6278 21.2121 78.9536 19.5341 79.6051 18.2159C80.2566 16.8902 81.1089 15.9091 82.1619 15.2727C83.2225 14.6364 84.3627 14.3182 85.5824 14.3182C86.4991 14.3182 87.2831 14.4773 87.9347 14.7955C88.5938 15.1061 89.1354 15.5076 89.5597 16C89.9839 16.4924 90.3059 17.0038 90.5256 17.5341H90.6847V14.5455H96.2188V32.0682C96.2188 33.5455 95.8475 34.7917 95.1051 35.8068C94.3627 36.822 93.3248 37.5909 91.9915 38.1136C90.6581 38.6439 89.1165 38.9091 87.3665 38.9091ZM87.5369 27.7159C88.2112 27.7159 88.7869 27.5379 89.2642 27.1818C89.7415 26.8258 90.1089 26.3144 90.3665 25.6477C90.6241 24.9811 90.7528 24.1818 90.7528 23.25C90.7528 22.303 90.6241 21.4886 90.3665 20.8068C90.1165 20.1174 89.7491 19.5871 89.2642 19.2159C88.7869 18.8447 88.2112 18.6591 87.5369 18.6591C86.8475 18.6591 86.2642 18.8485 85.7869 19.2273C85.3097 19.6061 84.946 20.1402 84.696 20.8295C84.4536 21.5114 84.3324 22.3182 84.3324 23.25C84.3324 24.1818 84.4574 24.9811 84.7074 25.6477C84.9574 26.3144 85.3172 26.8258 85.7869 27.1818C86.2642 27.5379 86.8475 27.7159 87.5369 27.7159ZM99.7614 32V14.5455H105.318V32H99.7614ZM102.545 12.5114C101.765 12.5114 101.095 12.2538 100.534 11.7386C99.9735 11.2159 99.6932 10.5871 99.6932 9.85227C99.6932 9.125 99.9735 8.50379 100.534 7.98864C101.095 7.46591 101.765 7.20454 102.545 7.20454C103.333 7.20454 104.004 7.46591 104.557 7.98864C105.117 8.50379 105.398 9.125 105.398 9.85227C105.398 10.5871 105.117 11.2159 104.557 11.7386C104.004 12.2538 103.333 12.5114 102.545 12.5114ZM118.707 14.5455V18.6364H107.696V14.5455H118.707ZM110.003 10.3636H115.56V26.5114C115.56 26.8523 115.613 27.1288 115.719 27.3409C115.832 27.5455 115.995 27.6932 116.207 27.7841C116.42 27.8674 116.673 27.9091 116.969 27.9091C117.181 27.9091 117.404 27.8902 117.639 27.8523C117.882 27.8068 118.063 27.7689 118.185 27.7386L119.026 31.75C118.76 31.8258 118.385 31.9205 117.901 32.0341C117.423 32.1477 116.851 32.2197 116.185 32.25C114.882 32.3106 113.764 32.1591 112.832 31.7955C111.908 31.4242 111.2 30.8485 110.707 30.0682C110.223 29.2879 109.988 28.3068 110.003 27.125V10.3636ZM121.543 32V14.5455H127.099V32H121.543ZM124.327 12.5114C123.546 12.5114 122.876 12.2538 122.315 11.7386C121.755 11.2159 121.474 10.5871 121.474 9.85227C121.474 9.125 121.755 8.50379 122.315 7.98864C122.876 7.46591 123.546 7.20454 124.327 7.20454C125.115 7.20454 125.785 7.46591 126.338 7.98864C126.899 8.50379 127.179 9.125 127.179 9.85227C127.179 10.5871 126.899 11.2159 126.338 11.7386C125.785 12.2538 125.115 12.5114 124.327 12.5114ZM138.784 32.3295C136.943 32.3295 135.364 31.9508 134.045 31.1932C132.735 30.4356 131.727 29.3826 131.023 28.0341C130.318 26.678 129.966 25.1098 129.966 23.3295C129.966 21.5417 130.318 19.9735 131.023 18.625C131.735 17.2689 132.746 16.2121 134.057 15.4545C135.375 14.697 136.947 14.3182 138.773 14.3182C140.386 14.3182 141.792 14.6098 142.989 15.1932C144.193 15.7765 145.133 16.6023 145.807 17.6705C146.489 18.7311 146.848 19.9773 146.886 21.4091H141.693C141.587 20.5152 141.284 19.8144 140.784 19.3068C140.292 18.7992 139.648 18.5455 138.852 18.5455C138.208 18.5455 137.644 18.7273 137.159 19.0909C136.674 19.447 136.295 19.9773 136.023 20.6818C135.758 21.3788 135.625 22.2424 135.625 23.2727C135.625 24.303 135.758 25.1742 136.023 25.8864C136.295 26.5909 136.674 27.125 137.159 27.4886C137.644 27.8447 138.208 28.0227 138.852 28.0227C139.367 28.0227 139.822 27.9129 140.216 27.6932C140.617 27.4735 140.947 27.1515 141.205 26.7273C141.462 26.2955 141.625 25.7727 141.693 25.1591H146.886C146.833 26.5985 146.473 27.8561 145.807 28.9318C145.148 30.0076 144.22 30.8447 143.023 31.4432C141.833 32.0341 140.42 32.3295 138.784 32.3295ZM164.969 19.875L159.866 20.0114C159.813 19.6477 159.67 19.3258 159.435 19.0455C159.2 18.7576 158.893 18.5341 158.514 18.375C158.143 18.2083 157.711 18.125 157.219 18.125C156.575 18.125 156.026 18.2538 155.571 18.5114C155.124 18.7689 154.904 19.1174 154.912 19.5568C154.904 19.8977 155.041 20.1932 155.321 20.4432C155.609 20.6932 156.12 20.8939 156.855 21.0455L160.219 21.6818C161.961 22.0152 163.257 22.5682 164.105 23.3409C164.961 24.1136 165.393 25.1364 165.401 26.4091C165.393 27.6061 165.037 28.6477 164.332 29.5341C163.635 30.4205 162.681 31.1098 161.469 31.6023C160.257 32.0871 158.87 32.3295 157.31 32.3295C154.817 32.3295 152.851 31.8182 151.412 30.7955C149.98 29.7652 149.162 28.3864 148.957 26.6591L154.446 26.5227C154.567 27.1591 154.882 27.6439 155.389 27.9773C155.897 28.3106 156.545 28.4773 157.332 28.4773C158.045 28.4773 158.624 28.3447 159.071 28.0795C159.518 27.8144 159.745 27.4621 159.753 27.0227C159.745 26.6288 159.571 26.3144 159.23 26.0795C158.889 25.8371 158.355 25.6477 157.628 25.5114L154.582 24.9318C152.832 24.6136 151.529 24.0265 150.673 23.1705C149.817 22.3068 149.393 21.2083 149.401 19.875C149.393 18.7083 149.704 17.7121 150.332 16.8864C150.961 16.053 151.855 15.4167 153.014 14.9773C154.173 14.5379 155.541 14.3182 157.116 14.3182C159.48 14.3182 161.344 14.8144 162.707 15.8068C164.071 16.7917 164.825 18.1477 164.969 19.875Z" fill="black"/>
</svg>
