<svg width="56" height="52" viewBox="0 0 56 52" fill="none" xmlns="http://www.w3.org/2000/svg">
<path d="M39.462 20.338L33.88 10.104H38.817L50.397 20.338H39.462ZM17.056 10.104H12.12L0.551 20.338H11.484L17.056 10.104ZM37.046 20.338L31.464 10.104H19.472L13.899 20.338H37.046ZM13.666 22.457L25.394 51.939L37.259 22.457H13.666ZM0 22.457L21.993 49.1L11.388 22.457H0ZM39.547 22.457L28.953 48.76L50.925 22.456L39.547 22.457ZM3.517 5.10001H5.38V6.96301C5.38 7.24413 5.49168 7.51375 5.69047 7.71254C5.88926 7.91133 6.15887 8.02301 6.44 8.02301C6.72113 8.02301 6.99074 7.91133 7.18953 7.71254C7.38832 7.51375 7.5 7.24413 7.5 6.96301V5.10001H9.361C9.63636 5.09154 9.89761 4.97621 10.0894 4.77844C10.2812 4.58067 10.3884 4.316 10.3884 4.0405C10.3884 3.76501 10.2812 3.50034 10.0894 3.30257C9.89761 3.1048 9.63636 2.98947 9.361 2.981H7.5V1.12C7.50436 0.97813 7.48018 0.836825 7.4289 0.704472C7.37761 0.572119 7.30027 0.451414 7.20146 0.349516C7.10264 0.247619 6.98437 0.166606 6.85365 0.111282C6.72294 0.0559579 6.58244 0.0274506 6.4405 0.0274506C6.29856 0.0274506 6.15806 0.0559579 6.02735 0.111282C5.89663 0.166606 5.77836 0.247619 5.67954 0.349516C5.58073 0.451414 5.50339 0.572119 5.4521 0.704472C5.40082 0.836825 5.37664 0.97813 5.381 1.12V2.982H3.518C3.24264 2.99047 2.98139 3.1058 2.7896 3.30357C2.59781 3.50134 2.49055 3.76601 2.49055 4.0415C2.49055 4.317 2.59781 4.58167 2.7896 4.77944C2.98139 4.97721 3.24264 5.09254 3.518 5.101L3.517 5.10001ZM54.961 32.934H53.099V31.072C53.0905 30.7966 52.9752 30.5354 52.7774 30.3436C52.5797 30.1518 52.315 30.0446 52.0395 30.0446C51.764 30.0446 51.4993 30.1518 51.3016 30.3436C51.1038 30.5354 50.9885 30.7966 50.98 31.072V32.934H49.117C48.9751 32.9296 48.8338 32.9538 48.7015 33.0051C48.5691 33.0564 48.4484 33.1337 48.3465 33.2326C48.2446 33.3314 48.1636 33.4496 48.1083 33.5804C48.053 33.7111 48.0244 33.8516 48.0244 33.9935C48.0244 34.1354 48.053 34.2759 48.1083 34.4067C48.1636 34.5374 48.2446 34.6556 48.3465 34.7545C48.4484 34.8533 48.5691 34.9306 48.7015 34.9819C48.8338 35.0332 48.9751 35.0574 49.117 35.053H50.98V36.915C50.9756 37.0569 50.9998 37.1982 51.0511 37.3305C51.1024 37.4629 51.1797 37.5836 51.2785 37.6855C51.3774 37.7874 51.4956 37.8684 51.6263 37.9237C51.7571 37.9791 51.8976 38.0076 52.0395 38.0076C52.1814 38.0076 52.3219 37.9791 52.4527 37.9237C52.5834 37.8684 52.7016 37.7874 52.8005 37.6855C52.8993 37.5836 52.9766 37.4629 53.0279 37.3305C53.0792 37.1982 53.1034 37.0569 53.099 36.915V35.053H54.961C55.2364 35.0445 55.4976 34.9292 55.6894 34.7314C55.8812 34.5337 55.9884 34.269 55.9884 33.9935C55.9884 33.718 55.8812 33.4533 55.6894 33.2556C55.4976 33.0578 55.2364 32.9425 54.961 32.934Z" fill="url(#paint0_linear_360_207)"/>
<defs>
<linearGradient id="paint0_linear_360_207" x1="0" y1="26" x2="56" y2="26" gradientUnits="userSpaceOnUse">
<stop stop-color="#384BFF"/>
<stop offset="1" stop-color="#4C1FCB"/>
</linearGradient>
</defs>
</svg>
