<svg width="72" height="72" viewBox="0 0 72 72" fill="none" xmlns="http://www.w3.org/2000/svg">
<g opacity="0.1">
<path d="M70.68 24.8971L55.692 39.8851C54.8534 40.7235 53.7161 41.1944 52.5302 41.1943C51.3444 41.1941 50.2072 40.7229 49.3688 39.8843C48.5304 39.0457 48.0594 37.9084 48.0596 36.7225C48.0597 35.5367 48.5309 34.3995 49.3695 33.5611L53.925 29.0056C23.349 27.5011 3.46652 48.0241 3.28202 69.0601C3.27602 69.8206 2.20802 69.9751 1.97102 69.2761C-5.41198 47.4076 8.01603 19.9411 43.1115 14.9746C46.5347 14.5321 49.9702 14.1915 53.4135 13.9531L49.368 9.90757C48.5296 9.06915 48.0586 7.93202 48.0586 6.74632C48.0586 5.56062 48.5296 4.42348 49.368 3.58507C50.2064 2.74665 51.3436 2.27563 52.5293 2.27563C53.715 2.27563 54.8521 2.74665 55.6905 3.58507L70.68 18.5746C71.0953 18.9897 71.4246 19.4825 71.6494 20.0249C71.8741 20.5673 71.9897 21.1487 71.9897 21.7358C71.9897 22.3229 71.8741 22.9043 71.6494 23.4467C71.4246 23.9891 71.0953 24.482 70.68 24.8971Z" fill="#2B4DFF"/>
</g>
</svg>
