<svg width="41" height="32" viewBox="0 0 41 32" fill="none" xmlns="http://www.w3.org/2000/svg">
<path d="M4.32835 28.9722C2.01085 26.5107 0.766602 23.75 0.766602 19.2747C0.766602 11.3997 6.29485 4.3415 14.3341 0.851746L16.3434 3.95225C8.8396 8.01125 7.3726 13.2785 6.7876 16.5995C7.99585 15.974 9.5776 15.7557 11.1279 15.8997C15.1869 16.2755 18.3864 19.6077 18.3864 23.75C18.3864 25.8386 17.5567 27.8416 16.0798 29.3185C14.603 30.7953 12.5999 31.625 10.5114 31.625C8.0971 31.625 5.7886 30.5225 4.32835 28.9722ZM26.8284 28.9722C24.5109 26.5107 23.2666 23.75 23.2666 19.2747C23.2666 11.3997 28.7949 4.3415 36.8341 0.851746L38.8434 3.95225C31.3396 8.01125 29.8726 13.2785 29.2876 16.5995C30.4959 15.974 32.0776 15.7557 33.6278 15.8997C37.6869 16.2755 40.8863 19.6077 40.8863 23.75C40.8863 25.8386 40.0567 27.8416 38.5798 29.3185C37.103 30.7953 35.0999 31.625 33.0113 31.625C30.5971 31.625 28.2886 30.5225 26.8284 28.9722Z" fill="#CFD4DD"/>
</svg>
